<?xml version="1.0" encoding="UTF-8"?>
<svg version="1.1" xmlns="http://www.w3.org/2000/svg" width="1045" height="722">
<path d="M0 0 C0.69677573 0.00223072 1.39355146 0.00446144 2.11144161 0.00675976 C3.21422404 0.00441978 3.21422404 0.00441978 4.3392849 0.00203252 C6.82138116 -0.00198015 9.30341708 0.00121318 11.78551388 0.00434887 C13.55741569 0.00299495 15.32931723 0.00121507 17.10121822 -0.00096118 C21.92752549 -0.00553659 26.75381148 -0.00374552 31.58011913 -0.0005821 C36.6192064 0.00194095 41.65829178 -0.00039588 46.69737911 -0.00196826 C55.16133102 -0.00379012 63.62527422 -0.00138323 72.08922482 0.00337231 C81.88957925 0.00881496 91.68991287 0.00705232 101.4902668 0.00154591 C109.88853636 -0.00298477 118.28679965 -0.003636 126.68507004 -0.00101542 C131.70804657 0.0005476 136.73101331 0.00074042 141.75398922 -0.00255191 C146.4751181 -0.00542996 151.19622004 -0.00345616 155.917346 0.00234234 C157.65526313 0.0036703 159.3931825 0.00327523 161.13109875 0.00107968 C163.49322986 -0.00163045 165.85527321 0.00174759 168.21739864 0.00675976 C168.91417438 0.00452904 169.61095011 0.00229832 170.32884026 0 C175.05027026 0.01959354 175.05027026 0.01959354 176.16442013 1.13374341 C176.26102725 2.56202958 176.28813847 3.99507971 176.28746796 5.42662919 C176.289459 6.35868685 176.29145005 7.29074452 176.29350144 8.25104636 C176.2905886 9.28701671 176.28767575 10.32298707 176.28467464 11.39035046 C176.28552907 12.48151337 176.28638349 13.57267627 176.28726381 14.69690472 C176.28892183 18.38363089 176.283392 22.07031239 176.27794552 25.75703442 C176.27766369 28.38769033 176.27782129 31.01834633 176.27838802 33.64900219 C176.27891345 39.32826786 176.27576474 45.00752208 176.27015018 50.68678486 C176.26203765 58.89813652 176.25942022 67.10948262 176.25816219 75.32083785 C176.25597128 88.64185834 176.24931015 101.96287272 176.23985958 115.28388989 C176.23068647 128.22724895 176.22360514 141.17060636 176.21935177 154.11396801 C176.21908905 154.91123311 176.21882632 155.70849821 176.21855564 156.52992285 C176.21725064 160.52939923 176.21598692 164.52887562 176.21474373 168.52835202 C176.20436991 201.7301536 176.18675054 234.93194769 176.16442013 268.13374341 C174.71740994 268.77847612 173.27022852 269.42282456 171.82297421 270.06700909 C171.01709331 270.42587153 170.21121241 270.78473398 169.38091087 271.15447104 C167.1367202 272.14598157 164.88207932 273.09912634 162.60582638 274.01460278 C161.82189007 274.33087628 161.03795376 274.64714978 160.2302618 274.97300732 C159.40415905 275.30448773 158.5780563 275.63596814 157.72692013 275.97749341 C156.82883129 276.33950848 155.93074245 276.70152356 155.0054388 277.07450879 C153.06874868 277.85512134 151.13179497 278.63508021 149.19460201 279.41444409 C143.96812465 281.51749946 138.74397555 283.62632031 133.51988888 285.73530591 C132.43386883 286.17367779 131.34784878 286.61204968 130.22891903 287.06370556 C117.96648425 292.01652696 105.72053547 297.00961696 93.47692013 302.00874341 C91.91953121 302.6442915 91.91953121 302.6442915 90.33067989 303.29267895 C88.31435037 304.11559534 86.29814163 304.93880776 84.28206539 305.76234448 C82.39622497 306.53262268 80.51010645 307.30222046 78.62367916 308.0710603 C74.82198023 309.62324801 71.02553232 311.1821722 67.25572872 312.81050122 C66.18790157 313.27037426 65.12007442 313.73024731 64.01988888 314.20405591 C63.15388058 314.58577954 62.28787228 314.96750317 61.3956213 315.36079419 C59.16442013 316.13374341 59.16442013 316.13374341 55.16442013 316.13374341 C54.66942013 266.13874341 54.66942013 266.13874341 54.16442013 215.13374341 C51.64817013 224.33249341 49.13192013 233.53124341 46.53942013 243.00874341 C44.00548458 252.19160473 44.00548458 252.19160473 42.91373348 256.14172375 C39.92937875 266.94362378 36.97888372 277.74905989 34.19573116 288.60487378 C33.00850386 293.22519084 31.79248182 297.83766777 30.57268429 302.44947827 C30.01159271 304.60342692 29.46483521 306.76116361 28.93291378 308.92250073 C28.19341638 311.9216611 27.40555503 314.90408059 26.60582638 317.88764966 C26.40515057 318.75878903 26.20447475 319.6299284 25.99771786 320.52746594 C24.95557273 324.24118674 24.13421894 326.44118447 20.93410397 328.72647107 C18.38462711 330.0278023 15.83918469 331.11781949 13.16442013 332.13374341 C11.5658215 332.82029004 11.5658215 332.82029004 9.93492794 333.5207063 C9.00519161 333.8789851 8.07545528 334.23726391 7.11754513 334.60639966 C6.04141964 335.02461987 4.96529415 335.44284009 3.8565588 335.87373364 C2.72065304 336.31016186 1.58474728 336.74659009 0.41442013 337.19624341 C-2.08464231 338.16667427 -4.5833481 339.13798344 -7.08167362 340.11030591 C-8.04075878 340.48278706 -8.04075878 340.48278706 -9.0192194 340.86279309 C-15.91711577 343.54530534 -22.78175211 346.30898478 -29.64807987 349.07124341 C-40.56204029 353.45724911 -51.5149443 357.73299235 -62.49372196 361.9538728 C-71.30007318 365.34198229 -80.05330054 368.84017423 -88.77307987 372.44624341 C-104.64696269 379.00011746 -120.75796715 384.93509569 -136.85985661 390.90101635 C-137.93137722 391.29864178 -137.93137722 391.29864178 -139.02454472 391.70430005 C-139.68839176 391.94931256 -140.35223881 392.19432507 -141.03620243 392.4467622 C-142.58049622 393.03635546 -144.10102122 393.6875546 -145.61536503 394.35029614 C-148.85679193 395.49409853 -151.52261231 394.78334489 -154.83557987 394.13374341 C-154.96835331 393.50725903 -155.10112675 392.88077466 -155.23792362 392.23530591 C-155.41452518 391.41804028 -155.59112675 390.60077466 -155.77307987 389.75874341 C-155.94710331 388.94663403 -156.12112675 388.13452466 -156.30042362 387.29780591 C-156.7588868 385.10428041 -156.7588868 385.10428041 -157.83557987 383.13374341 C-161.42658363 383.76384314 -164.66257134 384.72115487 -168.06214237 386.03218091 C-169.09725956 386.43050122 -170.13237675 386.82882153 -171.19886112 387.23921216 C-172.27522831 387.65815747 -173.3515955 388.07710278 -174.46057987 388.50874341 C-175.45186893 388.88901684 -176.443158 389.26929028 -177.46448612 389.66108716 C-186.68817607 393.2275806 -195.83612081 396.97705458 -204.99086857 400.71604931 C-216.76717019 405.5223773 -228.5711441 410.25832537 -240.38221073 414.97846997 C-243.92903694 416.39611677 -247.47511052 417.81563446 -251.02112675 419.23530591 C-253.34595228 420.16510408 -255.67082054 421.09479541 -257.99573612 422.02436841 C-259.5339175 422.64024823 -259.5339175 422.64024823 -261.10317326 423.26857007 C-267.47317718 425.81260589 -273.85817515 428.31542195 -280.25206852 430.79872143 C-281.49474405 431.28165819 -281.49474405 431.28165819 -282.76252413 431.77435124 C-284.78680129 432.56100767 -286.81118013 433.34740247 -288.83557987 434.13374341 C-288.83731612 434.71910756 -288.83905237 435.30447171 -288.84084123 435.90757418 C-288.94378057 470.57043577 -289.05187379 505.23327734 -289.16669681 539.89610162 C-289.18046705 544.05441698 -289.19419404 548.21273249 -289.20789433 552.37104809 C-289.21062263 553.19892376 -289.21335093 554.02679943 -289.21616191 554.87976225 C-289.2602847 568.29967902 -289.30090185 581.71960425 -289.34023248 595.13953583 C-289.38064132 608.90084947 -289.42479648 622.66214738 -289.47245842 636.42343783 C-289.50176968 644.92073467 -289.52812876 653.41803029 -289.55075885 661.91534759 C-289.56653851 667.73550288 -289.58594399 673.5556389 -289.60824829 679.37577282 C-289.62102454 682.73796669 -289.63162074 686.10013074 -289.63899899 689.46234334 C-289.64723343 693.10067665 -289.66150252 696.7389363 -289.67736149 700.37724316 C-289.6783396 701.44921016 -289.6793177 702.52117715 -289.68032545 703.62562799 C-289.68579989 704.59451067 -289.69127434 705.56339334 -289.69691467 706.56163609 C-289.69957272 707.4023369 -289.70223076 708.24303771 -289.70496935 709.10921431 C-289.83557987 711.13374341 -289.83557987 711.13374341 -290.83557987 713.13374341 C-306.85551524 713.15707257 -322.87544513 713.17472266 -338.89539337 713.18555558 C-346.33322498 713.1907185 -353.77104604 713.19776112 -361.20887089 713.20918286 C-367.68939329 713.21912982 -374.16990807 713.22559686 -380.65043789 713.2278319 C-384.0838853 713.22913899 -387.51731087 713.23222471 -390.9507513 713.23947346 C-394.77751808 713.24748756 -398.60426323 713.24773454 -402.43103886 713.2472688 C-403.57758442 713.25086407 -404.72412998 713.25445935 -405.90541935 713.25816357 C-406.94173496 713.25678891 -407.97805058 713.25541424 -409.04576969 713.25399792 C-409.95189219 713.25491971 -410.8580147 713.25584151 -411.79159546 713.25679123 C-413.83557987 713.13374341 -413.83557987 713.13374341 -414.83557987 712.13374341 C-414.93359898 709.09971977 -414.96549059 706.08844734 -414.95583439 703.05401623 C-414.95668881 702.08944345 -414.95754324 701.12487067 -414.95842355 700.13106841 C-414.96008129 696.87274569 -414.9545522 693.61447355 -414.94910526 690.35615551 C-414.94882343 688.03091444 -414.94898105 685.70567327 -414.94954777 683.38043225 C-414.94983589 677.04597501 -414.94393682 670.71153652 -414.93697381 664.37708366 C-414.93137329 658.43447226 -414.93035199 652.49186161 -414.92932194 646.54924793 C-414.92713111 634.77557034 -414.9204702 623.00189966 -414.91101933 611.22822583 C-414.901846 599.78844753 -414.89476478 588.34867112 -414.89051151 576.90888989 C-414.89024879 576.20422166 -414.88998607 575.49955342 -414.88971538 574.77353161 C-414.88841038 571.23856144 -414.88714666 567.70359126 -414.88590348 564.16862106 C-414.87552992 534.82365738 -414.85783665 505.47870047 -414.83557987 476.13374341 C-413.07837211 475.33031703 -411.32065434 474.52800607 -409.56272221 473.72616589 C-408.0945609 473.05580603 -408.0945609 473.05580603 -406.59673977 472.37190354 C-403.43448841 470.95388585 -400.24043116 469.66980382 -396.99964237 468.44233716 C-395.78631229 467.97908032 -394.57298222 467.51582348 -393.32288456 467.03852856 C-392.69458744 466.79999157 -392.06629032 466.56145459 -391.4189539 466.31568921 C-380.40423603 462.12861342 -369.46042582 457.79871291 -358.58557987 453.25874341 C-334.7125011 443.30250083 -310.65834907 433.80806077 -286.5418787 424.45893872 C-269.2749525 417.76361192 -252.05034598 410.96192241 -234.83557987 404.13374341 C-234.15708988 403.86475232 -233.47859989 403.59576123 -232.7795496 403.31861889 C-217.754862 397.36084029 -202.77406666 391.30407924 -187.83557987 385.13374341 C-177.2720961 380.77050077 -166.69675176 376.44257364 -156.08557987 372.19624341 C-154.90375126 371.72033764 -153.72192265 371.24443188 -152.50428104 370.75410473 C-146.11856306 368.19480847 -139.71526886 365.70045068 -133.27134037 363.29104626 C-129.75576136 361.97368063 -126.24749235 360.63741629 -122.73951054 359.29997265 C-121.02469083 358.65232106 -119.30634785 358.01391562 -117.58448124 357.38523877 C-115.17581176 356.50520228 -112.78087253 355.59444873 -110.38636112 354.67671216 C-109.66594135 354.42285748 -108.94552158 354.1690028 -108.20327091 353.90745556 C-104.62008851 352.49810504 -103.00592134 351.42666444 -101.05408573 348.07026684 C-100.61370577 346.76917488 -100.21051826 345.45518051 -99.83557987 344.13374341 C-99.59865925 343.36697781 -99.36173862 342.60021222 -99.11763859 341.8102113 C-98.30061427 339.08572192 -97.54027498 336.34965196 -96.78870487 333.60639966 C-96.50147556 332.57251111 -96.21424625 331.53862256 -95.91831303 330.47340405 C-94.96885744 327.04910164 -94.02700639 323.62276121 -93.08557987 320.19624341 C-92.40849567 317.74527094 -91.73124636 315.29434409 -91.05384159 312.8434602 C-86.30530104 295.62879652 -81.67102078 278.38443149 -77.07721806 261.12791455 C-70.58667599 236.76029416 -63.90235474 212.44673246 -57.21057987 188.13374341 C-56.6575867 186.1244266 -56.10459801 184.11510857 -55.55161381 182.1057893 C-55.27925309 181.11614493 -55.00689238 180.12650055 -54.72627831 179.10686696 C-53.38105087 174.21873186 -52.03597456 169.33055521 -50.69104862 164.44233716 C-50.43070772 163.49616654 -50.17036682 162.54999592 -49.9021368 161.57515347 C-45.74311297 146.45763967 -41.61072919 131.33323778 -37.52307987 116.19624341 C-37.27509647 115.27827984 -37.02711308 114.36031628 -36.77161503 113.41453564 C-35.81887687 109.88734461 -34.86646299 106.3600663 -33.91458988 102.83264172 C-26.87796466 76.75937351 -19.77004177 50.70833458 -12.39954472 24.72724926 C-12.18358646 23.96586148 -11.96762821 23.20447369 -11.74512577 22.42001355 C-11.33129823 20.96181882 -10.91700957 19.50375486 -10.50220585 18.04583752 C-9.08486454 13.05309529 -7.72614811 8.04666806 -6.41590214 3.02461255 C-5.29806088 -0.61765944 -3.51581268 0.01459033 0 0 Z " fill="#F9F9F9" transform="translate(416.83557987213135,3.866256594657898)"/>
<path d="M0 0 C22.78261513 -0.04666548 45.56522241 -0.08196204 68.3478756 -0.10362434 C78.92561818 -0.11394867 89.50333113 -0.12803101 100.08105469 -0.15087891 C109.29772194 -0.17077747 118.51436772 -0.18370802 127.73105586 -0.18817699 C132.61381539 -0.19079038 137.49651349 -0.19695682 142.37925339 -0.21146011 C146.97070259 -0.22498828 151.56206479 -0.22923235 156.15353203 -0.22621536 C157.8426568 -0.22676767 159.53178435 -0.2307734 161.22089195 -0.23841095 C163.51930789 -0.2482978 165.81739128 -0.24599206 168.11581421 -0.24050903 C169.4044808 -0.24235262 170.69314739 -0.24419621 172.02086449 -0.24609566 C175 0 175 0 177 2 C177.72489929 4.00170898 177.72489929 4.00170898 178.40112305 6.49609375 C178.78744148 7.90157471 178.78744148 7.90157471 179.18156433 9.33544922 C179.45551529 10.35912598 179.72946625 11.38280273 180.01171875 12.4375 C180.30303177 13.50500488 180.59434479 14.57250977 180.89448547 15.67236328 C181.83181389 19.11322589 182.75974829 22.55654433 183.6875 26 C184.29300994 28.22803041 184.8991236 30.45589685 185.50585938 32.68359375 C187.92888912 41.59219051 190.33078266 50.50645134 192.72583008 59.42260742 C196.84133002 74.74182091 201.01657848 90.04393897 205.22052002 105.33911133 C207.10072246 112.17998356 208.97871279 119.02146274 210.85546875 125.86328125 C211.13171585 126.87033804 211.13171585 126.87033804 211.4135437 127.89773941 C214.15474785 137.89321449 216.87233715 147.89476664 219.56185913 157.90426636 C225.19791585 178.87890044 231.03756666 199.79662276 236.86221313 220.71951294 C240.80928073 234.90136793 244.73970512 249.08782845 248.66836548 263.27479172 C249.24780396 265.36707039 249.82737445 267.45931246 250.40698242 269.55154419 C254.12260222 282.96445971 257.83486529 296.37824659 261.515625 309.80078125 C261.90793304 311.2308551 261.90793304 311.2308551 262.3081665 312.68981934 C263.48433174 316.97856428 264.65855523 321.26782353 265.82910156 325.55810547 C266.22978226 327.0218196 266.63049602 328.48552468 267.03125 329.94921875 C267.53495117 331.79519653 267.53495117 331.79519653 268.04882812 333.6784668 C268.94941967 336.99753812 268.94941967 336.99753812 270.18554688 340.12817383 C271.08955512 343.31577843 271.23497343 344.92628102 270 348 C268.04272461 349.32348633 268.04272461 349.32348633 265.40234375 350.33203125 C264.39324951 350.72986816 263.38415527 351.12770508 262.34448242 351.53759766 C261.22017822 351.95831543 260.09587402 352.3790332 258.9375 352.8125 C257.12277403 353.5210919 255.30806984 354.22974095 253.49397278 354.93994141 C251.47553243 355.72703903 249.45380806 356.50524697 247.43164062 357.28271484 C240.02487852 360.14055513 232.66624631 363.12069115 225.29876709 366.07791138 C222.69373598 367.12249944 220.08756782 368.16419461 217.48095703 369.20483398 C206.59696731 373.55032443 195.73146681 377.93663693 184.89453125 382.3984375 C184.20955566 382.67913086 183.52458008 382.95982422 182.81884766 383.24902344 C181.25287177 383.89559281 179.69404923 384.55943867 178.13671875 385.2265625 C176 386 176 386 173 386 C168.45406011 370.21697622 164.0463028 354.39812596 159.6875 338.5625 C158.99416629 336.04589137 158.30080631 333.52928997 157.60742188 331.01269531 C155.59099083 323.6925737 153.57715029 316.37174053 151.56395721 309.05072784 C150.99814332 306.99324853 150.43222126 304.935799 149.86627197 302.87835693 C147.60456663 294.65584454 145.34469151 286.43283171 143.08706665 278.209198 C142.3770106 275.62275986 141.66646613 273.03645755 140.95565796 270.45022583 C140.45106552 268.61390091 140.45106552 268.61390091 139.9362793 266.74047852 C139.64512741 265.68127701 139.35397552 264.6220755 139.05400085 263.53077698 C138.68155645 262.17163565 138.30944294 260.81240364 137.9375 259.453125 C137.65630625 258.42564714 137.3751125 257.39816929 137.08539772 256.33955574 C134.60781674 247.2674525 132.17245717 238.18466013 129.75390625 229.09667969 C129.38647114 227.71722438 129.01899896 226.33777894 128.65148926 224.95834351 C127.76723472 221.63900869 126.88347261 218.31954303 126 215 C125.99945523 215.82183179 125.99891047 216.64366358 125.99834919 217.49039936 C125.9833942 237.46997968 125.94099948 257.44933652 125.86790943 277.428792 C125.83322837 287.090656 125.80789984 296.75237686 125.80444336 306.41430664 C125.80140778 314.83380937 125.78097234 323.25305739 125.73947543 331.67246169 C125.71810655 336.1322321 125.70556462 340.59164006 125.71384621 345.05146217 C125.72136198 349.24674707 125.70566562 353.4412961 125.67193985 357.636446 C125.66367649 359.17838115 125.66399194 360.72038908 125.67340279 362.26231766 C125.68496348 364.36409332 125.66600779 366.46343235 125.63923645 368.5650177 C125.63647107 369.74214734 125.63370569 370.91927698 125.63085651 372.13207722 C125 375 125 375 122.67167187 376.80794811 C119.35188504 378.28917723 116.03579745 379.75677875 112.66796875 381.125 C111.94023254 381.42412292 111.21249634 381.72324585 110.46270752 382.03143311 C108.03946921 383.0254959 105.61362726 384.01301087 103.1875 385 C101.46296269 385.7047298 99.73843491 386.40948294 98.01391602 387.11425781 C81.1525965 393.9899538 64.21939813 400.68438818 47.27819824 407.36027527 C46.29436157 407.74798599 45.3105249 408.13569672 44.296875 408.53515625 C43.32818481 408.91686478 42.35949463 409.2985733 41.3614502 409.69184875 C35.36074059 412.05947068 29.37083918 414.45219514 23.390625 416.87109375 C22.67330704 417.16071991 21.95598907 417.45034607 21.2169342 417.74874878 C17.97132913 419.05961746 14.72799523 420.37538963 11.48803711 421.70019531 C10.39241455 422.14331055 9.29679199 422.58642578 8.16796875 423.04296875 C7.23235107 423.42477295 6.2967334 423.80657715 5.33276367 424.19995117 C3 425 3 425 0 425 C-1.27433783 405.88083053 -1.14392552 386.75638269 -1.13072467 367.60565817 C-1.12843957 362.69183125 -1.13196527 357.77800774 -1.13470459 352.86418152 C-1.1391264 343.2710785 -1.13820243 333.67798335 -1.13529195 324.08488003 C-1.13302624 316.2926821 -1.13273043 308.50048636 -1.13381577 300.70828819 C-1.133969 299.59601571 -1.13412223 298.48374322 -1.13428011 297.33776551 C-1.13459985 295.07789519 -1.13492406 292.81802487 -1.1352527 290.55815455 C-1.13809631 269.42782426 -1.13483675 248.29749833 -1.12945233 227.16716876 C-1.12497356 209.02819172 -1.1257712 190.88922107 -1.13037109 172.75024414 C-1.13571643 151.66194433 -1.13783406 130.57364832 -1.13475883 109.48534793 C-1.13444028 107.23996937 -1.13412591 104.99459082 -1.13381577 102.74921227 C-1.13366149 101.6445161 -1.13350721 100.53981994 -1.13334826 99.40164814 C-1.13248386 91.6072147 -1.13394409 83.81278367 -1.13629532 76.0183506 C-1.13909253 66.53788717 -1.13835624 57.05743202 -1.13301457 47.57696954 C-1.13037831 42.73820948 -1.12937142 37.89946325 -1.13266373 33.06070328 C-1.13562746 28.63829929 -1.13403262 24.21592207 -1.12868617 19.79352053 C-1.12756247 18.18779783 -1.12815214 16.58207289 -1.13056196 14.9763516 C-1.13357116 12.80607454 -1.13051605 10.63589112 -1.12584114 8.46561909 C-1.12567879 7.25658147 -1.12551644 6.04754386 -1.12534916 4.80186874 C-1 2 -1 2 0 0 Z " fill="#FAFAFA" transform="translate(2,4)"/>
<path d="M0 0 C-1 3 -1 3 -2.96520996 4.09941101 C-3.83971802 4.44389786 -4.71422607 4.7883847 -5.61523438 5.14331055 C-6.62541626 5.5479805 -7.63559814 5.95265045 -8.6763916 6.36958313 C-10.36798401 7.02775276 -10.36798401 7.02775276 -12.09375 7.69921875 C-13.92906184 8.42968012 -15.76436711 9.16015811 -17.59947968 9.89111996 C-19.62261655 10.69486847 -21.64777227 11.49335315 -23.67333984 12.29095459 C-28.17616472 14.06619564 -32.6687984 15.86638803 -37.16015625 17.67041016 C-43.80513077 20.33843673 -50.45203177 23.00155065 -57.1015625 25.65820312 C-57.95691086 25.99994127 -58.81225922 26.34167942 -59.69352722 26.69377327 C-61.42861039 27.38695616 -63.16370257 28.08011649 -64.89880371 28.77325439 C-69.20101198 30.49209855 -73.50283647 32.21190261 -77.8046875 33.93164062 C-84.56913855 36.63570697 -91.3337009 39.33949465 -98.09838867 42.04296875 C-98.91891063 42.37089165 -99.73943258 42.69881454 -100.58481884 43.0366745 C-104.71220707 44.68616467 -108.83965333 46.33550944 -112.9671936 47.98461914 C-116.96284528 49.58105794 -120.95831856 51.17794246 -124.95367432 52.77512169 C-126.42454609 53.36302444 -127.89548036 53.95077087 -129.3664856 54.53833961 C-138.32133129 58.11528326 -147.26268351 61.72362749 -156.1875 65.375 C-169.09092356 70.64813514 -182.02929533 75.83203797 -194.97583008 80.99829102 C-196.68050316 81.67854352 -198.38517439 82.35880066 -200.08984375 83.0390625 C-200.92693375 83.37306564 -201.76402374 83.70706879 -202.6264801 84.05119324 C-208.04924785 86.21646333 -213.46581695 88.39659919 -218.87890625 90.5859375 C-220.90795361 91.40467955 -222.93714583 92.22306132 -224.96640015 93.04129028 C-226.80802834 93.7854387 -228.64782524 94.53411428 -230.48754883 95.28295898 C-231.60282959 95.73227783 -232.71811035 96.18159668 -233.8671875 96.64453125 C-235.29200439 97.22231323 -235.29200439 97.22231323 -236.74560547 97.81176758 C-241.09802491 99.40090677 -245.56195365 100.6685861 -250 102 C-250 202.65 -250 303.3 -250 407 C-167.5 407 -85 407 0 407 C0 445.28 0 483.56 0 523 C-124.41 523 -248.82 523 -377 523 C-378.3810581 520.2378838 -378.12408501 518.02150573 -378.12304783 514.92862511 C-378.12503888 513.62533646 -378.12702993 512.32204781 -378.12908131 510.97926557 C-378.12622788 509.51916637 -378.12328228 508.05906735 -378.12025452 506.59896851 C-378.1206902 505.05869168 -378.12156507 503.51841492 -378.12284368 501.97813857 C-378.12508912 497.72986084 -378.12106668 493.48160813 -378.11606562 489.23333359 C-378.11176202 484.6580022 -378.11320748 480.08267232 -378.1139679 475.50733948 C-378.11449319 467.57504312 -378.11134584 459.64275496 -378.10573006 451.71046066 C-378.09761577 440.24158167 -378.09499991 428.77270665 -378.09374207 417.3038251 C-378.09155143 398.69799052 -378.08489104 380.09216032 -378.07543945 361.48632812 C-378.06626563 343.40852887 -378.05918465 325.3307308 -378.05493164 307.25292969 C-378.05466892 306.13930578 -378.05440619 305.02568188 -378.05413551 303.8783118 C-378.05283051 298.2917945 -378.05156679 292.70527719 -378.05032361 287.11875987 C-378.03995065 240.74583688 -378.02233202 194.37291867 -378 148 C-373.8747406 146.25094655 -369.74893952 144.50317432 -365.62304688 142.75561523 C-363.88822052 142.0200452 -363.88822052 142.0200452 -362.11834717 141.26961517 C-352.28323734 137.1050595 -342.40709641 133.05214288 -332.5 129.0625 C-330.73328943 128.34943369 -328.96660743 127.63629657 -327.19995117 126.9230957 C-321.46845247 124.61086995 -315.73442543 122.30495589 -310 120 C-308.97392639 119.58737915 -307.94785278 119.1747583 -306.89068604 118.74963379 C-282.32391691 108.87151798 -257.73943586 99.05459202 -233.02490234 89.55175781 C-224.92444855 86.432278 -216.83740795 83.27810856 -208.75 80.125 C-207.88181641 79.78665131 -207.01363281 79.44830261 -206.11914062 79.09970093 C-193.13039216 74.03503804 -180.17863645 68.88329117 -167.24472046 63.68041992 C-157.38114038 59.71534614 -147.49147804 55.84458097 -137.50756836 52.18969727 C-131.51797024 49.98780032 -125.59181208 47.64685901 -119.671875 45.265625 C-108.8893549 40.9311038 -98.04522394 36.76680048 -87.1875 32.625 C-85.16155871 31.85083055 -83.13568119 31.07649419 -81.10986328 30.30200195 C-76.89331085 28.69011456 -72.6764866 27.0789413 -68.45947266 25.46826172 C-58.7838018 21.77194008 -49.11165947 18.06640368 -39.43936157 14.36126709 C-36.44949169 13.21603315 -33.45950588 12.07110242 -30.46948242 10.92626953 C-29.53539047 10.56853455 -28.60129852 10.21079956 -27.63890076 9.84222412 C-25.84361319 9.15485307 -24.04817793 8.46786763 -22.25257874 7.78131104 C-18.44924232 6.32624231 -14.64824602 4.86624783 -10.85644531 3.38134766 C-9.67920898 2.92163574 -8.50197266 2.46192383 -7.2890625 1.98828125 C-5.8033374 1.40300659 -5.8033374 1.40300659 -4.28759766 0.8059082 C-2 0 -2 0 0 0 Z " fill="#F9F9F9" transform="translate(1045,194)"/>
<path d="M0 0 C41.58 0 83.16 0 126 0 C127.73042 3.46083999 127.13231157 7.466864 127.12025452 11.27590942 C127.12110894 12.24950374 127.12196337 13.22309805 127.12284368 14.22619522 C127.12449904 17.50905084 127.11897618 20.79185607 127.11352539 24.07470703 C127.1132435 26.41979979 127.11340128 28.76489264 127.1139679 31.10998535 C127.11425582 37.49396852 127.10835995 43.87793305 127.10139394 50.26191187 C127.09579059 56.25235518 127.09477186 62.24279849 127.09374207 68.23324393 C127.09155196 80.10064922 127.08489298 91.96804765 127.07543945 103.83544922 C127.06626428 115.36539679 127.05918396 126.89534249 127.05493164 138.42529297 C127.05466892 139.13567247 127.05440619 139.84605197 127.05413551 140.57795812 C127.0528305 144.1416258 127.05156678 147.70529349 127.05032361 151.26896119 C127.03995227 180.84597856 127.02226087 210.42298916 127 240 C125.26632757 240.79342064 123.53205904 241.58553885 121.79754639 242.37712097 C120.83184093 242.81837405 119.86613548 243.25962713 118.87116623 243.71425152 C114.77663421 245.54784035 110.6256839 247.21694362 106.453125 248.86328125 C105.57577698 249.21225967 104.69842896 249.5612381 103.79449463 249.92079163 C101.91931758 250.66663763 100.04371774 251.41142144 98.16772461 252.1552124 C93.1454766 254.1472391 88.12726016 256.14935697 83.109375 258.15234375 C82.09109619 258.55878113 81.07281738 258.96521851 80.02368164 259.38397217 C70.159966 263.32635465 60.32459118 267.33624036 50.5 271.375 C49.76978638 271.67499908 49.03957275 271.97499817 48.28723145 272.28408813 C40.75638102 275.3793953 33.23079088 278.48713063 25.71289062 281.61376953 C6.53081404 289.58436829 -12.72176216 297.37339199 -31.99584198 305.11851501 C-35.40504167 306.48875933 -38.81378054 307.86014812 -42.22253227 309.23150635 C-61.8081041 317.11064228 -81.40041631 324.97268648 -101.00650024 332.80065918 C-115.72397789 338.67711846 -130.41836837 344.60950549 -145.10717773 350.55722046 C-165.76438977 358.92017257 -186.45165082 367.20760936 -207.15150452 375.4644165 C-212.34337104 377.53588987 -217.53166646 379.61583453 -222.71582031 381.70654297 C-223.83437408 382.15666245 -224.95292786 382.60678192 -226.1053772 383.07054138 C-228.24522828 383.93186801 -230.38426332 384.79522598 -232.52230835 385.661026 C-238.2941494 387.98156039 -244.07670785 390.09769869 -250 392 C-250.11106583 392.67061462 -250.22213165 393.34122925 -250.33656311 394.03216553 C-251.48723618 400.6956868 -253.01359756 407.14195103 -254.87109375 413.640625 C-255.14893204 414.62822815 -255.42677032 415.6158313 -255.71302795 416.63336182 C-256.61642905 419.84027214 -257.5269228 423.04512068 -258.4375 426.25 C-259.07468998 428.50702848 -259.7114028 430.76419171 -260.34765625 433.02148438 C-261.9359807 438.65263829 -263.52975429 444.28223236 -265.12518311 449.91137695 C-266.37982342 454.34100219 -267.62983949 458.77192544 -268.87890625 463.203125 C-269.31982404 464.76708989 -269.760742 466.33105474 -270.20166016 467.89501953 C-270.41574524 468.65445862 -270.62983032 469.41389771 -270.85040283 470.1963501 C-271.50972777 472.53449735 -272.16958533 474.87249371 -272.82958984 477.21044922 C-280.34568091 503.83770952 -287.82102686 530.47654207 -295.19140625 557.14453125 C-295.37077477 557.79349806 -295.55014328 558.44246487 -295.7349472 559.11109734 C-296.47107392 561.77455978 -297.20712617 564.43804279 -297.94314575 567.10153484 C-304.99163954 592.60839194 -312.09518868 618.0990659 -319.27074432 643.57049942 C-319.93252873 645.91985185 -320.59400399 648.26929115 -321.25543213 650.6187439 C-322.29637341 654.31568897 -323.3383881 658.01232986 -324.3813076 661.70871735 C-324.76335322 663.063063 -325.14515902 664.41747633 -325.52669716 665.77196503 C-326.05334231 667.64109889 -326.58121608 669.50988644 -327.10913086 671.37866211 C-327.40347519 672.42171005 -327.69781952 673.464758 -328.00108337 674.53941345 C-329.29918753 679.03648725 -330.65501705 683.51672352 -332 688 C-357.41 688 -382.82 688 -409 688 C-410.91177936 682.26466193 -412.73797516 676.59702931 -414.33398438 670.77978516 C-414.6552201 669.62040263 -414.6552201 669.62040263 -414.98294544 668.43759823 C-415.68868112 665.88867126 -416.3911645 663.33885939 -417.09375 660.7890625 C-417.59774201 658.96729088 -418.10199522 657.1455915 -418.60649109 655.32395935 C-419.68047346 651.44489207 -420.75325129 647.56549474 -421.82504272 643.68582153 C-424.65416253 633.44628703 -427.49210453 623.20919805 -430.33203125 612.97265625 C-430.61684168 611.94589972 -430.90165211 610.91914318 -431.19509315 609.86127281 C-436.45426076 590.90779694 -441.79744168 571.97910813 -447.1875 553.0625 C-453.33055961 531.4995248 -459.36743713 509.91060641 -465.25708008 488.27685547 C-467.80423287 478.93050634 -470.38064216 469.59606806 -473.08203125 460.29296875 C-473.32258743 459.46270172 -473.56314362 458.63243469 -473.81098938 457.77700806 C-474.91519432 453.97148666 -476.02842564 450.16902845 -477.15844727 446.37109375 C-477.54074059 445.06386443 -477.92283404 443.75657663 -478.3046875 442.44921875 C-478.63452637 441.33893311 -478.96436523 440.22864746 -479.30419922 439.0847168 C-480.01073956 435.95238795 -480.1305401 433.19943552 -480 430 C-478.03385417 429.21354167 -476.06770833 428.42708333 -474.1015625 427.640625 C-473.46023376 427.38406631 -472.81890503 427.12750763 -472.15814209 426.86317444 C-468.4436819 425.37727519 -464.72905175 423.89180283 -461.01416016 422.40698242 C-452.42053565 418.97157741 -443.82900474 415.53105899 -435.24124146 412.08102417 C-430.73584381 410.27137624 -426.2296226 408.46378421 -421.72332764 406.65637207 C-419.50033605 405.76416061 -417.27771696 404.87102046 -415.05548096 403.97692871 C-411.8999286 402.7074679 -408.74307047 401.44130504 -405.5859375 400.17578125 C-404.64965515 399.79817154 -403.7133728 399.42056183 -402.74871826 399.0315094 C-397.22361963 396.82118815 -391.66946684 394.80903425 -386 393 C-384.23771027 395.64343459 -383.59566909 397.00543406 -382.87084961 399.96484375 C-382.67402084 400.75576416 -382.47719208 401.54668457 -382.2743988 402.36157227 C-382.06912064 403.21162842 -381.86384247 404.06168457 -381.65234375 404.9375 C-381.43558487 405.81398193 -381.21882599 406.69046387 -380.99549866 407.59350586 C-380.30394002 410.39433625 -379.62045807 413.19706127 -378.9375 416 C-378.24936002 418.80251913 -377.55957561 421.60462609 -376.86878967 424.40649414 C-376.43951267 426.15000562 -376.01207372 427.8939709 -375.58665466 429.63842773 C-375.39297806 430.42934814 -375.19930145 431.22026855 -374.99975586 432.03515625 C-374.83035995 432.7300415 -374.66096405 433.42492676 -374.48643494 434.14086914 C-374.05769083 435.77950841 -373.53562675 437.39311975 -373 439 C-372.74089844 437.46279297 -372.74089844 437.46279297 -372.4765625 435.89453125 C-372.19494688 434.5333891 -371.91096566 433.17273489 -371.625 431.8125 C-371.51800781 431.13896484 -371.41101563 430.46542969 -371.30078125 429.77148438 C-370.58535131 426.58315528 -369.83220769 424.62473979 -367.17358398 422.62890625 C-364.50100657 421.24647091 -361.79586577 420.11358906 -359 419 C-357.83629883 418.51088135 -356.67259766 418.0217627 -355.47363281 417.51782227 C-351.27079158 415.75946183 -347.04206526 414.06781069 -342.8125 412.375 C-341.20506912 411.72796562 -339.59781474 411.08049261 -337.99072266 410.43261719 C-334.52046879 409.03419819 -331.04935014 407.63795548 -327.57763672 406.24316406 C-318.68612008 402.6693723 -309.80350183 399.07354126 -300.91967773 395.48068237 C-297.8902953 394.25618248 -294.86027496 393.03327399 -291.83007812 391.81079102 C-283.25892854 388.35147853 -274.69132582 384.88574334 -266.15234375 381.34765625 C-264.87322381 380.81930161 -263.59409036 380.29097971 -262.31494141 379.76269531 C-260.06077454 378.82935144 -257.80893972 377.89034478 -255.56005859 376.94433594 C-254.11687256 376.34733887 -254.11687256 376.34733887 -252.64453125 375.73828125 C-251.83346924 375.39837158 -251.02240723 375.05846191 -250.18676758 374.70825195 C-248 374 -248 374 -244 374 C-244.99 377.3 -245.98 380.6 -247 384 C-245.83210937 383.48953125 -244.66421875 382.9790625 -243.4609375 382.453125 C-231.78929662 377.38480049 -220.02999252 372.56842343 -208.20654297 367.86621094 C-206.89808963 367.3457593 -205.58965901 366.82525056 -204.28125 366.3046875 C-203.61844025 366.04099365 -202.95563049 365.7772998 -202.2727356 365.50561523 C-193.99933451 362.20953193 -185.75062234 358.85258688 -177.5 355.5 C-164.97787772 350.41268642 -152.43880264 345.37125552 -139.88134766 340.37182617 C-133.51563746 337.83012797 -127.1660135 335.25394417 -120.8359375 332.625 C-120.16496033 332.34637619 -119.49398315 332.06775238 -118.80267334 331.78068542 C-115.5778499 330.44009706 -112.3550654 329.09482594 -109.13476562 327.7434082 C-107.99458984 327.26734131 -106.85441406 326.79127441 -105.6796875 326.30078125 C-104.67663574 325.87966064 -103.67358398 325.45854004 -102.64013672 325.0246582 C-100.42528874 324.16505797 -98.31719882 323.50175023 -96 323 C-96.34224609 322.20335937 -96.34224609 322.20335937 -96.69140625 321.390625 C-97.12259766 320.33101563 -97.12259766 320.33101563 -97.5625 319.25 C-97.85253906 318.55390625 -98.14257812 317.8578125 -98.44140625 317.140625 C-99.11312955 314.56646858 -99.02053565 313.45257279 -98 311 C-95.96679688 309.8059082 -95.96679688 309.8059082 -93.21875 308.80078125 C-92.17001709 308.40503906 -91.12128418 308.00929688 -90.04077148 307.6015625 C-88.87231689 307.17617188 -87.7038623 306.75078125 -86.5 306.3125 C-83.93714185 305.34394567 -81.37593731 304.37177547 -78.81640625 303.39453125 C-78.12531265 303.13209625 -77.43421906 302.86966125 -76.72218323 302.59927368 C-67.54709143 299.09648791 -58.49969242 295.28282695 -49.4375 291.5 C-46.80031125 290.40217594 -44.16276572 289.30521237 -41.52519226 288.20831299 C-39.80433524 287.49265078 -38.08355997 286.77679197 -36.36286926 286.06072998 C-28.60435586 282.83268632 -20.83862248 279.62288671 -13.0625 276.4375 C-11.9499585 275.97859375 -10.83741699 275.5196875 -9.69116211 275.046875 C-8.69093018 274.63824219 -7.69069824 274.22960937 -6.66015625 273.80859375 C-5.80043213 273.45595459 -4.94070801 273.10331543 -4.05493164 272.73999023 C-2 272 -2 272 0 272 C-0.07071429 271.40643471 -0.14142858 270.81286942 -0.21428573 270.20131731 C-0.92725049 263.75874595 -1.14171214 257.41844473 -1.12698364 250.94030762 C-1.12854363 249.87145089 -1.13010362 248.80259416 -1.13171089 247.70134783 C-1.13567811 244.1439832 -1.13254796 240.58666177 -1.12939453 237.02929688 C-1.1307504 234.46952286 -1.13253139 231.90974904 -1.13470459 229.34997559 C-1.13878313 223.13561092 -1.13819751 216.92126207 -1.13529195 210.7068972 C-1.13302954 205.65852474 -1.13272902 200.61015566 -1.13381577 195.56178284 C-1.133969 194.84212126 -1.13412223 194.12245968 -1.13428011 193.38099018 C-1.13459984 191.91891698 -1.13492405 190.45684378 -1.1352527 188.99477059 C-1.13809962 175.30783399 -1.13483198 161.6209041 -1.12945233 147.9339686 C-1.12497738 136.18449135 -1.12576744 124.43502396 -1.13037109 112.68554688 C-1.13571764 99.03371026 -1.13783303 85.3818795 -1.13475883 71.73004198 C-1.13444028 70.275925 -1.13412591 68.82180802 -1.13381577 67.36769104 C-1.13366149 66.65225367 -1.13350721 65.9368163 -1.13334826 65.19969901 C-1.13248392 60.15204706 -1.13394406 55.10439882 -1.13629532 50.05674744 C-1.13938564 43.27370974 -1.13719912 36.49069368 -1.13140106 29.70765686 C-1.13007366 27.21225007 -1.13046725 24.71684172 -1.13266373 22.22143555 C-1.13537573 18.82887646 -1.13199355 15.43637839 -1.12698364 12.04382324 C-1.12921436 11.04482357 -1.13144509 10.04582389 -1.13374341 9.01655149 C-1.13113566 8.11305354 -1.12852791 7.20955558 -1.12584114 6.27867889 C-1.12567879 5.49504077 -1.12551644 4.71140265 -1.12534916 3.90401793 C-1 2 -1 2 0 0 Z " fill="#F8F9F9" transform="translate(668,4)"/>
<path d="M0 0 C0 117.48 0 234.96 0 356 C-39.6 356 -79.2 356 -120 356 C-121 355 -121 355 -121.1241985 352.90730852 C-121.12381878 351.97509511 -121.12343906 351.0428817 -121.12304783 350.0824194 C-121.12503888 349.01102591 -121.12702993 347.93963241 -121.12908131 346.83577245 C-121.12616847 345.64416417 -121.12325563 344.45255588 -121.12025452 343.22483826 C-121.12110894 341.97033326 -121.12196337 340.71582826 -121.12284368 339.42330796 C-121.125091 335.92527275 -121.12106415 332.42726787 -121.11606562 328.92923653 C-121.11176468 325.16302941 -121.11320729 321.39682412 -121.1139679 317.63061523 C-121.11449336 311.10011321 -121.11134424 304.56962115 -121.10573006 298.03912163 C-121.09761806 288.59700646 -121.09500015 279.15489613 -121.09374207 269.71277786 C-121.09155107 254.39518576 -121.08488971 239.07759898 -121.07543945 223.76000977 C-121.06626656 208.8765465 -121.05918513 193.99308467 -121.05493164 179.10961914 C-121.05466892 178.19287422 -121.05440619 177.2761293 -121.05413551 176.33160423 C-121.05283051 171.732765 -121.05156679 167.13392576 -121.05032361 162.53508651 C-121.03994952 124.35672062 -121.02232992 86.17836066 -121 48 C-119.4215715 47.20187684 -117.84209649 46.40582317 -116.26219177 45.61062622 C-115.38273612 45.16709871 -114.50328047 44.72357121 -113.59717464 44.26660347 C-110.02063197 42.52237677 -106.37104001 41.04711898 -102.66015625 39.6171875 C-101.90495193 39.32153397 -101.14974762 39.02588043 -100.37165833 38.7212677 C-98.76666677 38.09333196 -97.16089208 37.46739462 -95.55438232 36.84335327 C-91.2756976 35.18064299 -87.00353601 33.50130043 -82.73046875 31.82421875 C-81.45789215 31.32541954 -81.45789215 31.32541954 -80.15960693 30.81654358 C-73.37783848 28.15599412 -66.61812793 25.44462764 -59.875 22.6875 C-58.86711426 22.2764502 -57.85922852 21.86540039 -56.82080078 21.44189453 C-50.42526239 18.82742704 -44.0401119 16.18866736 -37.6583252 13.54084778 C-33.60254325 11.85972967 -29.54423191 10.18476812 -25.48565674 8.51040649 C-23.4588513 7.67232665 -21.43324663 6.83133679 -19.40887451 5.98739624 C-16.56579172 4.8022951 -13.71892632 3.62675703 -10.87109375 2.453125 C-10.00472794 2.0891713 -9.13836212 1.72521759 -8.2457428 1.35023499 C-7.45107101 1.02486252 -6.65639923 0.69949005 -5.83764648 0.36425781 C-4.7939817 -0.06895782 -4.7939817 -0.06895782 -3.72923279 -0.51092529 C-2 -1 -2 -1 0 0 Z " fill="#FCFCFC" transform="translate(593,361)"/>
<path d="M0 0 C0 3.96 0 7.92 0 12 C-4.95366395 14.04582873 -9.90889388 16.0877619 -14.86669922 18.12353516 C-16.67352781 18.86586917 -18.47944357 19.6104244 -20.28515625 20.35546875 C-21.59806641 20.89107422 -21.59806641 20.89107422 -22.9375 21.4375 C-23.68902344 21.74558594 -24.44054687 22.05367188 -25.21484375 22.37109375 C-27 23 -27 23 -29 23 C-29.495 24.485 -29.495 24.485 -30 26 C-32.87890625 27.24609375 -32.87890625 27.24609375 -36.5625 28.4375 C-40.54147125 29.73526996 -44.23191185 31.05496569 -47.94921875 32.9765625 C-51.93830363 35.03265744 -56.0004729 36.51558632 -60.25 37.9375 C-66.36104172 40.03694175 -72.34728916 42.30001919 -78.2890625 44.84765625 C-80.94425255 45.97630332 -83.62103525 47.02390174 -86.3125 48.0625 C-89.36326824 49.25734342 -92.09169627 50.58696988 -94.875 52.3125 C-98 54 -98 54 -100.4375 53.75 C-100.953125 53.5025 -101.46875 53.255 -102 53 C-100.02 52.34 -98.04 51.68 -96 51 C-96.22816406 50.46890625 -96.45632813 49.9378125 -96.69140625 49.390625 C-97.12259766 48.33101563 -97.12259766 48.33101563 -97.5625 47.25 C-97.85253906 46.55390625 -98.14257812 45.8578125 -98.44140625 45.140625 C-99.11312955 42.56646858 -99.02053565 41.45257279 -98 39 C-95.96679688 37.8059082 -95.96679688 37.8059082 -93.21875 36.80078125 C-92.17001709 36.40503906 -91.12128418 36.00929688 -90.04077148 35.6015625 C-88.2880896 34.96347656 -88.2880896 34.96347656 -86.5 34.3125 C-83.93714185 33.34394567 -81.37593731 32.37177547 -78.81640625 31.39453125 C-78.12531265 31.13209625 -77.43421906 30.86966125 -76.72218323 30.59927368 C-67.54709143 27.09648791 -58.49969242 23.28282695 -49.4375 19.5 C-46.80031125 18.40217594 -44.16276572 17.30521237 -41.52519226 16.20831299 C-39.80433524 15.49265078 -38.08355997 14.77679197 -36.36286926 14.06072998 C-28.60435586 10.83268632 -20.83862248 7.62288671 -13.0625 4.4375 C-11.9499585 3.97859375 -10.83741699 3.5196875 -9.69116211 3.046875 C-8.19081421 2.43392578 -8.19081421 2.43392578 -6.66015625 1.80859375 C-5.80043213 1.45595459 -4.94070801 1.10331543 -4.05493164 0.73999023 C-2 0 -2 0 0 0 Z " fill="#9A9C9D" transform="translate(668,276)"/>
<path d="M0 0 C0.99 0.495 0.99 0.495 2 1 C2 118.48 2 235.96 2 357 C-37.6 357 -77.2 357 -118 357 C-119 356 -119 356 -119.1241985 353.90730852 C-119.12381878 352.97509511 -119.12343906 352.0428817 -119.12304783 351.0824194 C-119.12503888 350.01102591 -119.12702993 348.93963241 -119.12908131 347.83577245 C-119.12616847 346.64416417 -119.12325563 345.45255588 -119.12025452 344.22483826 C-119.12110894 342.97033326 -119.12196337 341.71582826 -119.12284368 340.42330796 C-119.125091 336.92527275 -119.12106415 333.42726787 -119.11606562 329.92923653 C-119.11176468 326.16302941 -119.11320729 322.39682412 -119.1139679 318.63061523 C-119.11449336 312.10011321 -119.11134424 305.56962115 -119.10573006 299.03912163 C-119.09761806 289.59700646 -119.09500015 280.15489613 -119.09374207 270.71277786 C-119.09155107 255.39518576 -119.08488971 240.07759898 -119.07543945 224.76000977 C-119.06626656 209.8765465 -119.05918513 194.99308467 -119.05493164 180.10961914 C-119.05466892 179.19287422 -119.05440619 178.2761293 -119.05413551 177.33160423 C-119.05283051 172.732765 -119.05156679 168.13392576 -119.05032361 163.53508651 C-119.03994952 125.35672062 -119.02232992 87.17836066 -119 49 C-118.01 49 -117.02 49 -116 49 C-116.33 149.98 -116.66 250.96 -117 355 C-78.06 355 -39.12 355 1 355 C1 238.51 1 122.02 1 2 C-0.98 2.33 -2.96 2.66 -5 3 C-2 1 -2 1 0 0 Z " fill="#9D9EA0" transform="translate(591,360)"/>
<path d="M0 0 C-1 3 -1 3 -2.96520996 4.09941101 C-3.83971802 4.44389786 -4.71422607 4.7883847 -5.61523438 5.14331055 C-6.62541626 5.5479805 -7.63559814 5.95265045 -8.6763916 6.36958313 C-9.80411987 6.80836288 -10.93184814 7.24714264 -12.09375 7.69921875 C-13.92906184 8.42968012 -15.76436711 9.16015811 -17.59947968 9.89111996 C-19.62261655 10.69486847 -21.64777227 11.49335315 -23.67333984 12.29095459 C-28.17616472 14.06619564 -32.6687984 15.86638803 -37.16015625 17.67041016 C-43.80513077 20.33843673 -50.45203177 23.00155065 -57.1015625 25.65820312 C-57.95691086 25.99994127 -58.81225922 26.34167942 -59.69352722 26.69377327 C-61.42861039 27.38695616 -63.16370257 28.08011649 -64.89880371 28.77325439 C-69.20101198 30.49209855 -73.50283647 32.21190261 -77.8046875 33.93164062 C-84.56913855 36.63570697 -91.3337009 39.33949465 -98.09838867 42.04296875 C-98.91891063 42.37089165 -99.73943258 42.69881454 -100.58481884 43.0366745 C-104.71220707 44.68616467 -108.83965333 46.33550944 -112.9671936 47.98461914 C-116.96284528 49.58105794 -120.95831856 51.17794246 -124.95367432 52.77512169 C-126.42454609 53.36302444 -127.89548036 53.95077087 -129.3664856 54.53833961 C-138.32133129 58.11528326 -147.26268351 61.72362749 -156.1875 65.375 C-169.09092356 70.64813514 -182.02929533 75.83203797 -194.97583008 80.99829102 C-196.68050316 81.67854352 -198.38517439 82.35880066 -200.08984375 83.0390625 C-200.92693375 83.37306564 -201.76402374 83.70706879 -202.6264801 84.05119324 C-208.04924785 86.21646333 -213.46581695 88.39659919 -218.87890625 90.5859375 C-220.90795361 91.40467955 -222.93714583 92.22306132 -224.96640015 93.04129028 C-226.80802834 93.7854387 -228.64782524 94.53411428 -230.48754883 95.28295898 C-236.91262558 97.87146242 -243.31823844 100.1655871 -250 102 C-250 101.01 -250 100.02 -250 99 C-251.65 99 -253.3 99 -255 99 C-252.25058222 97.16705481 -249.90693431 96.08130314 -246.84765625 94.890625 C-245.78023193 94.47321045 -244.71280762 94.0557959 -243.61303711 93.62573242 C-241.85552124 92.94474487 -241.85552124 92.94474487 -240.0625 92.25 C-238.81571143 91.76374854 -237.56905117 91.27716794 -236.32250977 90.7902832 C-230.06940535 88.35022319 -223.81009347 85.92613814 -217.55177307 83.49949646 C-214.59948967 82.35464092 -211.64738612 81.20932247 -208.69540405 80.06369019 C-207.18394745 79.47716241 -205.67241113 78.89084 -204.16079712 78.30471802 C-191.91554115 73.5547928 -179.7163777 68.69661408 -167.53118896 63.79495239 C-157.57244832 59.79194005 -147.58895909 55.88014454 -137.50878906 52.19018555 C-131.51880971 49.98805509 -125.59221971 47.64702297 -119.671875 45.265625 C-108.8893549 40.9311038 -98.04522394 36.76680048 -87.1875 32.625 C-85.16155871 31.85083055 -83.13568119 31.07649419 -81.10986328 30.30200195 C-76.89331085 28.69011456 -72.6764866 27.0789413 -68.45947266 25.46826172 C-58.7838018 21.77194008 -49.11165947 18.06640368 -39.43936157 14.36126709 C-36.44949169 13.21603315 -33.45950588 12.07110242 -30.46948242 10.92626953 C-29.0683445 10.38966705 -29.0683445 10.38966705 -27.63890076 9.84222412 C-25.84361319 9.15485307 -24.04817793 8.46786763 -22.25257874 7.78131104 C-18.44924232 6.32624231 -14.64824602 4.86624783 -10.85644531 3.38134766 C-9.67920898 2.92163574 -8.50197266 2.46192383 -7.2890625 1.98828125 C-5.8033374 1.40300659 -5.8033374 1.40300659 -4.28759766 0.8059082 C-2 0 -2 0 0 0 Z " fill="#B5B6B8" transform="translate(1045,194)"/>
<path d="M0 0 C-1.32 5.61 -2.64 11.22 -4 17 C-3.01 17.33 -2.02 17.66 -1 18 C-1.81041748 18.30703857 -2.62083496 18.61407715 -3.45581055 18.93041992 C-6.52931288 20.09503957 -9.60270382 21.25995228 -12.67602539 22.42504883 C-13.9936908 22.92451103 -15.3113976 23.42386407 -16.62915039 23.9230957 C-17.90925199 24.40807887 -19.18926603 24.89329324 -20.4691925 25.3787384 C-21.74909457 25.86381321 -23.02935942 26.34793185 -24.3099823 26.83110046 C-27.45507962 28.02046214 -30.58487176 29.23443414 -33.70629883 30.4855957 C-35.42949341 31.17335083 -35.42949341 31.17335083 -37.1875 31.875 C-38.20585937 32.28878906 -39.22421875 32.70257813 -40.2734375 33.12890625 C-43.99625005 34.31828619 -46.30039572 34.11848502 -50 33 C-50.13277344 32.37351562 -50.26554687 31.74703125 -50.40234375 31.1015625 C-50.66724609 29.87566406 -50.66724609 29.87566406 -50.9375 28.625 C-51.11152344 27.81289063 -51.28554688 27.00078125 -51.46484375 26.1640625 C-52.3355493 22.64310722 -52.83351473 22.11099018 -56 20 C-48.95755944 16.56949031 -41.7378691 13.64219033 -34.4375 10.8125 C-33.56391846 10.46767578 -32.69033691 10.12285156 -31.7902832 9.76757812 C-26.62033137 7.78811169 -21.64140037 6.46073773 -16.19848633 5.47631836 C-13.39635244 4.86921528 -11.11098767 3.78730529 -8.625 2.375 C-5.18969178 0.43914227 -4.11954022 0 0 0 Z " fill="#7E8185" transform="translate(312,365)"/>
<path d="M0 0 C0.99 0.495 0.99 0.495 2 1 C1.37351562 1.33773438 0.74703125 1.67546875 0.1015625 2.0234375 C-0.71570313 2.46945312 -1.53296875 2.91546875 -2.375 3.375 C-3.18710937 3.81585938 -3.99921875 4.25671875 -4.8359375 4.7109375 C-7.10814302 5.9443893 -7.10814302 5.9443893 -9 8 C-7.68 8.66 -6.36 9.32 -5 10 C-5.8664917 10.34554932 -6.7329834 10.69109863 -7.62573242 11.04711914 C-11.81349796 12.71763709 -16.00062018 14.38976348 -20.1875 16.0625 C-21.35504318 16.52893417 -21.35504318 16.52893417 -22.5461731 17.00479126 C-33.91625877 21.54891455 -45.27052194 26.13055971 -56.61322021 30.74258423 C-68.74204613 35.67345313 -80.881558 40.57412056 -93.0625 45.375 C-94.80164673 46.06275513 -94.80164673 46.06275513 -96.57592773 46.7644043 C-98.16449585 47.38762573 -98.16449585 47.38762573 -99.78515625 48.0234375 C-101.16006226 48.56363525 -101.16006226 48.56363525 -102.56274414 49.11474609 C-104.69918409 49.89073841 -106.78472193 50.50182897 -109 51 C-108.67 50.01 -108.34 49.02 -108 48 C-107.01 48 -106.02 48 -105 48 C-105 47.01 -105 46.02 -105 45 C-105.99 44.67 -106.98 44.34 -108 44 C-107.39009109 40.44219804 -106.4216319 37.3171411 -105 34 C-105.66 33.67 -106.32 33.34 -107 33 C-105.68 33 -104.36 33 -103 33 C-103.99 36.3 -104.98 39.6 -106 43 C-104.83210938 42.48953125 -103.66421875 41.9790625 -102.4609375 41.453125 C-90.79805797 36.38860504 -79.04808348 31.57443242 -67.23291016 26.87719727 C-65.93128676 26.35960903 -64.62969221 25.84194825 -63.328125 25.32421875 C-62.66779266 25.06155716 -62.00746033 24.79889557 -61.32711792 24.52827454 C-56.03779996 22.42095786 -50.75939903 20.2873529 -45.484375 18.14453125 C-44.6752063 17.8158606 -43.8660376 17.48718994 -43.03234863 17.14855957 C-39.83989988 15.85125451 -36.64770591 14.55333379 -33.45654297 13.25286865 C-29.06678967 11.46400355 -24.67402555 9.68299688 -20.27563477 7.91546631 C-18.68608405 7.27600511 -17.09745099 6.63426017 -15.50952148 5.99078369 C-13.01466506 4.98198717 -10.51575318 3.98392981 -8.015625 2.98828125 C-7.24240906 2.67376511 -6.46919312 2.35924896 -5.67254639 2.03520203 C-3.80404339 1.2974804 -1.90392681 0.64078027 0 0 Z " fill="#D0D0D1" transform="translate(527,345)"/>
<path d="M0 0 C0 0.66 0 1.32 0 2 C-0.66 2 -1.32 2 -2 2 C-2 2.66 -2 3.32 -2 4 C-19.84643705 11.45959065 -37.74174298 18.75708472 -55.77734375 25.74951172 C-58.06324365 26.63651015 -60.34687582 27.52936279 -62.62890625 28.42626953 C-63.80324219 28.88501465 -64.97757813 29.34375977 -66.1875 29.81640625 C-67.25355469 30.2347876 -68.31960938 30.65316895 -69.41796875 31.08422852 C-72 32 -72 32 -74 32 C-74 31.01 -74 30.02 -74 29 C-75.65 29 -77.3 29 -79 29 C-76.25058222 27.16705481 -73.90693431 26.08130314 -70.84765625 24.890625 C-69.77781494 24.47224365 -68.70797363 24.0538623 -67.60571289 23.62280273 C-65.85182251 22.94326538 -65.85182251 22.94326538 -64.0625 22.25 C-62.85005615 21.77699463 -61.6376123 21.30398926 -60.38842773 20.81665039 C-57.00425719 19.49659189 -53.6182792 18.18122738 -50.23193359 16.86676025 C-46.25795113 15.32348403 -42.2853411 13.77668023 -38.3125 12.23046875 C-33.48305481 10.35111706 -28.65336132 8.47241383 -23.82250977 6.59667969 C-23.07304077 6.30561844 -22.32357178 6.01455719 -21.5513916 5.7146759 C-20.14766807 5.16960612 -18.74386502 4.62474106 -17.33996582 4.0801239 C-14.63555679 3.02992727 -11.94232616 1.97518365 -9.27709961 0.82836914 C-6.14821304 -0.30986525 -3.29732823 -0.12930699 0 0 Z " fill="#AEAFB1" transform="translate(869,264)"/>
<path d="M0 0 C0.99 0.33 1.98 0.66 3 1 C3.765625 2.70703125 3.765625 2.70703125 4.25 4.8125 C4.50523437 5.84310547 4.50523437 5.84310547 4.765625 6.89453125 C5.02170666 9.19499821 4.69015367 10.80629727 4 13 C3.67 12.01 3.34 11.02 3 10 C2.67 62.8 2.34 115.6 2 170 C1.34 170.33 0.68 170.66 0 171 C0 114.57 0 58.14 0 0 Z " fill="#959699" transform="translate(125,209)"/>
<path d="M0 0 C0.33 35.64 0.66 71.28 1 108 C1.99 108.33 2.98 108.66 4 109 C1.03 109.495 1.03 109.495 -2 110 C-2.33 76.67 -2.66 43.34 -3 9 C-3.33 9 -3.66 9 -4 9 C-4 6.36 -4 3.72 -4 1 C-2 0 -2 0 0 0 Z " fill="#A7A7A7" transform="translate(474,210)"/>
<path d="M0 0 C-1 3 -1 3 -3.1159668 4.15991211 C-4.05093994 4.52866455 -4.98591309 4.89741699 -5.94921875 5.27734375 C-7.01140625 5.70297607 -8.07359375 6.1286084 -9.16796875 6.56713867 C-10.32941406 7.01935791 -11.49085937 7.47157715 -12.6875 7.9375 C-14.50720879 8.66047405 -16.32691288 9.3834601 -18.14639282 10.10700989 C-20.08238109 10.87500974 -22.02034058 11.63787861 -23.95849609 12.40039062 C-28.10486744 14.0358638 -32.23460539 15.71108456 -36.36328125 17.390625 C-38.40900046 18.22006196 -40.45499291 19.04882016 -42.50112915 19.87722778 C-43.83154547 20.41653195 -45.16144343 20.95711665 -46.49081421 21.49899292 C-48.35641848 22.25826919 -50.22502283 23.01016136 -52.09375 23.76171875 C-53.16302734 24.19444092 -54.23230469 24.62716309 -55.33398438 25.07299805 C-58 26 -58 26 -61 26 C-61.33 25.01 -61.66 24.02 -62 23 C-61.44004837 22.78559769 -60.88009674 22.57119537 -60.30317688 22.35029602 C-54.41325509 20.0950563 -48.52338562 17.83968 -42.63354492 15.58422852 C-40.44280281 14.74532712 -38.25204788 13.9064592 -36.0612793 13.06762695 C-33.93290014 12.25267858 -31.80455299 11.43764664 -29.67623901 10.62252808 C-27.6040693 9.82908829 -25.5317443 9.03605391 -23.45925903 8.24343872 C-19.18488931 6.60791268 -14.91172408 4.97023473 -10.64990234 3.30224609 C-9.48023926 2.84543457 -8.31057617 2.38862305 -7.10546875 1.91796875 C-5.65950317 1.34792114 -5.65950317 1.34792114 -4.18432617 0.76635742 C-2 0 -2 0 0 0 Z " fill="#A2A4A6" transform="translate(1045,194)"/>
<path d="M0 0 C0 0.99 0 1.98 0 3 C-4.90553243 5.02647925 -9.81677171 7.03816564 -14.73388672 9.03637695 C-16.40578625 9.71821217 -18.07605441 10.40406194 -19.74462891 11.09399414 C-22.14328163 12.08499017 -24.54742999 13.06140236 -26.953125 14.03515625 C-27.69806213 14.34655045 -28.44299927 14.65794464 -29.21051025 14.97877502 C-32.98541674 16.48979601 -35.14000547 17.21431448 -39 16 C-39.7425 15.814375 -40.485 15.62875 -41.25 15.4375 C-41.8275 15.293125 -42.405 15.14875 -43 15 C-37.5223521 12.85518369 -32.0413766 10.71919284 -26.55712891 8.59130859 C-24.69192927 7.8661875 -22.82766199 7.13866338 -20.96435547 6.40869141 C-18.28594573 5.35987353 -15.60430216 4.31974266 -12.921875 3.28125 C-12.08944275 2.95314331 -11.2570105 2.62503662 -10.39935303 2.2869873 C-9.61884583 1.98667603 -8.83833862 1.68636475 -8.03417969 1.37695312 C-7.35023132 1.11047974 -6.66628296 0.84400635 -5.96160889 0.56945801 C-4 0 -4 0 0 0 Z " fill="#AFB0B2" transform="translate(984,218)"/>
<path d="M0 0 C-0.33 0.99 -0.66 1.98 -1 3 C-1.66 3 -2.32 3 -3 3 C-3 3.66 -3 4.32 -3 5 C-5.95619219 6.1721449 -8.91528789 7.33677476 -11.875 8.5 C-12.71675781 8.83386719 -13.55851563 9.16773438 -14.42578125 9.51171875 C-15.63427734 9.98544922 -15.63427734 9.98544922 -16.8671875 10.46875 C-17.61081543 10.76201172 -18.35444336 11.05527344 -19.12060547 11.35742188 C-21 12 -21 12 -23 12 C-23 11.01 -23 10.02 -23 9 C-24.65 9 -26.3 9 -28 9 C-20.24676922 3.83117948 -9.38924613 0 0 0 Z " fill="#ADAFB0" transform="translate(818,284)"/>
<path d="M0 0 C1.32 0 2.64 0 4 0 C3.01 3.3 2.02 6.6 1 10 C2.44375 9.319375 3.8875 8.63875 5.375 7.9375 C7.8359375 6.77734375 7.8359375 6.77734375 10 6 C10.66 6.33 11.32 6.66 12 7 C11.67 7.99 11.34 8.98 11 10 C12.98 10 14.96 10 17 10 C14.27227952 12.72772048 11.02994255 13.7460131 7.5 15.125 C6.81035156 15.40214844 6.12070312 15.67929687 5.41015625 15.96484375 C0.26712592 18 0.26712592 18 -2 18 C-1.505 16.515 -1.505 16.515 -1 15 C-0.01 15 0.98 15 2 15 C2 14.01 2 13.02 2 12 C1.01 11.67 0.02 11.34 -1 11 C-0.39009109 7.44219804 0.5783681 4.3171411 2 1 C1.34 0.67 0.68 0.34 0 0 Z " fill="#BCBEC0" transform="translate(420,378)"/>
<path d="M0 0 C-3.1989758 2.13265053 -6.49131134 3.65963865 -10 5.1875 C-10.6290625 5.47302734 -11.258125 5.75855469 -11.90625 6.05273438 C-16.64816835 8.11727722 -16.64816835 8.11727722 -20 7 C-19.01 6.01 -18.02 5.02 -17 4 C-17.9075 4.350625 -18.815 4.70125 -19.75 5.0625 C-23.00591313 6.00170571 -23.92749994 5.95514676 -27 5 C-24.96123051 4.18025737 -22.91883925 3.3695193 -20.875 2.5625 C-19.73804688 2.11003906 -18.60109375 1.65757812 -17.4296875 1.19140625 C-11.14554182 -0.99158285 -6.45129123 -1.00106243 0 0 Z " fill="#D0D1D1" transform="translate(835,280)"/>
<path d="M0 0 C-0.2109375 1.859375 -0.2109375 1.859375 -1 4 C-6.2902843 7.28362474 -11.86088631 8.53383597 -18 8 C-13.21771942 2.47048808 -7.5323055 -0.70615364 0 0 Z " fill="#B7B8BB" transform="translate(913,246)"/>
<path d="M0 0 C-1 3 -1 3 -3.05371094 4.18261719 C-5.94744952 5.38544259 -8.841596 6.58295688 -11.75 7.75 C-12.75289062 8.17410156 -13.75578125 8.59820312 -14.7890625 9.03515625 C-16.24699219 9.62876953 -16.24699219 9.62876953 -17.734375 10.234375 C-19.06807129 10.77916504 -19.06807129 10.77916504 -20.42871094 11.33496094 C-23.33769096 12.0873405 -25.13511932 11.80546578 -28 11 C-25.64099541 8.64099541 -23.74493514 8.00028337 -20.625 6.8359375 C-19.55765625 6.43632812 -18.4903125 6.03671875 -17.390625 5.625 C-15.71226563 5.00625 -15.71226563 5.00625 -14 4.375 C-12.32164063 3.74464844 -12.32164063 3.74464844 -10.609375 3.1015625 C-2.27140828 0 -2.27140828 0 0 0 Z " fill="#85878A" transform="translate(1045,194)"/>
<path d="M0 0 C0.66 0.33 1.32 0.66 2 1 C1.67 1.33 1.34 1.66 1 2 C1.99 2.66 2.98 3.32 4 4 C1.5433053 5.00419637 -0.91518353 6.00350501 -3.375 7 C-4.42300781 7.42925781 -4.42300781 7.42925781 -5.4921875 7.8671875 C-10.7734375 10 -10.7734375 10 -13 10 C-13 9.01 -13 8.02 -13 7 C-13.66 6.67 -14.32 6.34 -15 6 C-12.54524486 4.96971956 -10.08685649 3.95054496 -7.625 2.9375 C-6.57699219 2.49567383 -6.57699219 2.49567383 -5.5078125 2.04492188 C-3.69495092 1.30408902 -1.84876857 0.64603036 0 0 Z " fill="#B0B1B4" transform="translate(926,239)"/>
<path d="M0 0 C-2.31 1.32 -4.62 2.64 -7 4 C-5.68 4.66 -4.36 5.32 -3 6 C-7.95 7.485 -7.95 7.485 -13 9 C-13 8.01 -13 7.02 -13 6 C-14.65 6 -16.3 6 -18 6 C-14.87754953 3.91836635 -11.92965119 2.67424387 -8.4375 1.3125 C-7.28121094 0.85488281 -6.12492188 0.39726562 -4.93359375 -0.07421875 C-2 -1 -2 -1 0 0 Z " fill="#A3A5A7" transform="translate(808,287)"/>
<path d="M0 0 C-2.56417147 3.04662882 -5.40969231 4.20951098 -9.0625 5.6875 C-10.12597656 6.12449219 -11.18945312 6.56148437 -12.28515625 7.01171875 C-15 8 -15 8 -17 8 C-17 7.34 -17 6.68 -17 6 C-17.66 5.67 -18.32 5.34 -19 5 C-16.9635505 4.15399724 -14.92056513 3.3237175 -12.875 2.5 C-11.73804688 2.0359375 -10.60109375 1.571875 -9.4296875 1.09375 C-6.0528355 0.01684959 -3.51385272 -0.21360807 0 0 Z " fill="#939698" transform="translate(1020,205)"/>
<path d="M0 0 C0 0.66 0 1.32 0 2 C-0.66 2 -1.32 2 -2 2 C-2 2.66 -2 3.32 -2 4 C-5.90028225 6.60018816 -9.47434569 6.15085514 -14 6 C-9.69399504 0.20916574 -7.10931682 -0.13413805 0 0 Z " fill="#BBBBBD" transform="translate(869,264)"/>
<path d="M0 0 C0.66 0.33 1.32 0.66 2 1 C1.01 1.66 0.02 2.32 -1 3 C-0.01 3.66 0.98 4.32 2 5 C0.23494565 5.86604534 -1.53728074 6.71748642 -3.3125 7.5625 C-4.79169922 8.27599609 -4.79169922 8.27599609 -6.30078125 9.00390625 C-9 10 -9 10 -12 9 C-6.25 6 -6.25 6 -4 6 C-4 5.34 -4 4.68 -4 4 C-5.98 4.33 -7.96 4.66 -10 5 C-6.76527494 2.84351662 -3.62848922 1.38542316 0 0 Z " fill="#9A9C9F" transform="translate(897,250)"/>
<path d="M0 0 C-0.99 0.33 -1.98 0.66 -3 1 C-3 1.99 -3 2.98 -3 4 C-2.34 4.33 -1.68 4.66 -1 5 C-3.75 6.1875 -3.75 6.1875 -7 7 C-9.375 5.625 -9.375 5.625 -11 4 C-4.14893617 -1.38297872 -4.14893617 -1.38297872 0 0 Z " fill="#D3D4D3" transform="translate(657,283)"/>
<path d="M0 0 C-0.99 0.66 -1.98 1.32 -3 2 C-1.35 2.33 0.3 2.66 2 3 C-2.44 5.96 -2.44 5.96 -5 7 C-5.99 6.67 -6.98 6.34 -8 6 C-7.01 5.01 -6.02 4.02 -5 3 C-5.9075 3.350625 -6.815 3.70125 -7.75 4.0625 C-11.00591313 5.00170571 -11.92749994 4.95514676 -15 4 C-12.87875034 3.13656176 -10.75286928 2.28449352 -8.625 1.4375 C-6.84996094 0.72400391 -6.84996094 0.72400391 -5.0390625 -0.00390625 C-2 -1 -2 -1 0 0 Z " fill="#9D9EA0" transform="translate(823,281)"/>
<path d="M0 0 C0.66 0 1.32 0 2 0 C2.66 3.63 3.32 7.26 4 11 C4.99 11 5.98 11 7 11 C7 10.34 7 9.68 7 9 C9.64 8.67 12.28 8.34 15 8 C11.24532309 11.05936637 7.91886939 13 3 13 C2.49487756 11.39743892 1.99608373 9.79288208 1.5 8.1875 C1.2215625 7.29417969 0.943125 6.40085937 0.65625 5.48046875 C0 3 0 3 0 0 Z " fill="#9EA1A5" transform="translate(172,377)"/>
<path d="M0 0 C-0.99 0.66 -1.98 1.32 -3 2 C-1.68 2.66 -0.36 3.32 1 4 C-5.625 7.125 -5.625 7.125 -9 6 C-8.01 5.01 -7.02 4.02 -6 3 C-7.32 2.67 -8.64 2.34 -10 2 C-8.71211992 1.46987262 -7.41953322 0.9511671 -6.125 0.4375 C-5.40570312 0.14746094 -4.68640625 -0.14257812 -3.9453125 -0.44140625 C-2 -1 -2 -1 0 0 Z " fill="#A8A9AB" transform="translate(849,271)"/>
<path d="M0 0 C-2.931458 1.20282097 -5.87097242 2.38454273 -8.8125 3.5625 C-9.64587891 3.90474609 -10.47925781 4.24699219 -11.33789062 4.59960938 C-12.54155273 5.07817383 -12.54155273 5.07817383 -13.76953125 5.56640625 C-14.50792236 5.86490479 -15.24631348 6.16340332 -16.00708008 6.47094727 C-18 7 -18 7 -21 6 C-14.74603213 2.05728113 -7.47295057 -2.12036978 0 0 Z " fill="#939699" transform="translate(254,388)"/>
<path d="M0 0 C0 0.99 0 1.98 0 3 C-6.75 5.125 -6.75 5.125 -9 4 C-10.32860925 3.64830932 -11.66158328 3.31229724 -13 3 C-11.21189234 2.30329584 -9.41937948 1.61788811 -7.625 0.9375 C-6.62726562 0.55464844 -5.62953125 0.17179688 -4.6015625 -0.22265625 C-2 -1 -2 -1 0 0 Z " fill="#A5A8AA" transform="translate(954,230)"/>
<path d="M0 0 C0.66 0.33 1.32 0.66 2 1 C0.68 1.33 -0.64 1.66 -2 2 C-2 2.99 -2 3.98 -2 5 C-1.34 5 -0.68 5 0 5 C0.33 8.96 0.66 12.92 1 17 C-2.35997759 11.96003362 -3.29282455 7.00290323 -3 1 C-2.01 0.67 -1.02 0.34 0 0 Z " fill="#A1A3A6" transform="translate(191,433)"/>
<path d="M0 0 C-0.33 0.66 -0.66 1.32 -1 2 C-3.06640625 2.6328125 -3.06640625 2.6328125 -5.5625 3.125 C-6.38878906 3.29257812 -7.21507812 3.46015625 -8.06640625 3.6328125 C-8.70449219 3.75398438 -9.34257813 3.87515625 -10 4 C-10 5.65 -10 7.3 -10 9 C-12 6 -12 6 -11.8671875 3.92578125 C-11 2 -11 2 -9.2578125 0.91796875 C-8.55398438 0.67691406 -7.85015625 0.43585938 -7.125 0.1875 C-6.42632813 -0.06644531 -5.72765625 -0.32039063 -5.0078125 -0.58203125 C-3 -1 -3 -1 0 0 Z " fill="#616368" transform="translate(581,313)"/>
<path d="M0 0 C0 0.66 0 1.32 0 2 C-8.261959 6.59225513 -8.261959 6.59225513 -13 6 C-10.83049884 3.57206296 -8.99994161 2.3943719 -5.9375 1.3125 C-5.24527344 1.06113281 -4.55304687 0.80976563 -3.83984375 0.55078125 C-2 0 -2 0 0 0 Z " fill="#ECECEC" transform="translate(893,254)"/>
<path d="M0 0 C1.63129887 4.06285757 0.29968777 7.20102184 -0.9375 11.25 C-1.31777344 12.51328125 -1.69804687 13.7765625 -2.08984375 15.078125 C-2.39019531 16.04234375 -2.69054687 17.0065625 -3 18 C-3.33 18 -3.66 18 -4 18 C-4.04241723 15.66705225 -4.04092937 13.33297433 -4 11 C-3.67 10.67 -3.34 10.34 -3 10 C-2.855625 8.88625 -2.71125 7.7725 -2.5625 6.625 C-2 3 -2 3 0 0 Z " fill="#9E9FA2" transform="translate(350,636)"/>
<path d="M0 0 C0.66 0.33 1.32 0.66 2 1 C1.01 1.66 0.02 2.32 -1 3 C0.32 3.66 1.64 4.32 3 5 C-1.625 7.125 -1.625 7.125 -5 6 C-4.34 6 -3.68 6 -3 6 C-3 5.34 -3 4.68 -3 4 C-4.65 4 -6.3 4 -8 4 C-5.31143836 2.20762558 -3.0466145 1.01553817 0 0 Z " fill="#9C9EA1" transform="translate(872,260)"/>
<path d="M0 0 C-2.94557917 1.96371945 -5.75038726 3.29765337 -9 4.6875 C-10.051875 5.14511719 -11.10375 5.60273438 -12.1875 6.07421875 C-15 7 -15 7 -18 6 C-16.13308826 4.98498002 -14.25604656 3.98857921 -12.375 3 C-11.33085937 2.443125 -10.28671875 1.88625 -9.2109375 1.3125 C-5.85853405 -0.0578255 -3.58045064 -0.2580505 0 0 Z " fill="#9A9B9D" transform="translate(206,406)"/>
<path d="M0 0 C-2.45475514 1.03028044 -4.91314351 2.04945504 -7.375 3.0625 C-8.42300781 3.50432617 -8.42300781 3.50432617 -9.4921875 3.95507812 C-11.30504908 4.69591098 -13.15123143 5.35396964 -15 6 C-15.66 5.67 -16.32 5.34 -17 5 C-11.77051822 1.17354991 -6.62155011 -2.00959709 0 0 Z " fill="#9EA0A3" transform="translate(226,399)"/>
<path d="M0 0 C-0.33 0.99 -0.66 1.98 -1 3 C-3.06640625 3.94921875 -3.06640625 3.94921875 -5.5625 4.6875 C-6.38878906 4.93886719 -7.21507812 5.19023437 -8.06640625 5.44921875 C-9.02353516 5.72185547 -9.02353516 5.72185547 -10 6 C-10.66 5.34 -11.32 4.68 -12 4 C-10.3767313 3.3291288 -8.75132422 2.66342971 -7.125 2 C-6.22007813 1.62875 -5.31515625 1.2575 -4.3828125 0.875 C-2 0 -2 0 0 0 Z " fill="#75777B" transform="translate(1045,194)"/>
<path d="M0 0 C-2 3 -2 3 -4.3828125 3.51171875 C-5.28773438 3.56972656 -6.19265625 3.62773437 -7.125 3.6875 C-8.03507812 3.75324219 -8.94515625 3.81898438 -9.8828125 3.88671875 C-10.93082031 3.94279297 -10.93082031 3.94279297 -12 4 C-9.94577945 1.94577945 -8.66990976 1.31862408 -6 0.3125 C-5.29875 0.04050781 -4.5975 -0.23148437 -3.875 -0.51171875 C-2 -1 -2 -1 0 0 Z " fill="#A7AAAC" transform="translate(273,373)"/>
<path d="M0 0 C0.7425 0.0825 1.485 0.165 2.25 0.25 C2.25 0.91 2.25 1.57 2.25 2.25 C1.59 2.25 0.93 2.25 0.25 2.25 C0.25 2.91 0.25 3.57 0.25 4.25 C-2.06 4.25 -4.37 4.25 -6.75 4.25 C-3.42692308 0.31153846 -3.42692308 0.31153846 0 0 Z " fill="#E2E2E2" transform="translate(876.75,259.75)"/>
<path d="M0 0 C0 0.99 0 1.98 0 3 C-0.66 3 -1.32 3 -2 3 C-2 3.66 -2 4.32 -2 5 C-2.66 5 -3.32 5 -4 5 C-4 4.01 -4 3.02 -4 2 C-5.65 2 -7.3 2 -9 2 C-5.5647952 -0.29013653 -4.014669 -0.17842973 0 0 Z " fill="#C4C6C5" transform="translate(799,291)"/>
<path d="M0 0 C0.66 0.33 1.32 0.66 2 1 C-1.32307692 4.93846154 -1.32307692 4.93846154 -4.75 5.25 C-5.4925 5.1675 -6.235 5.085 -7 5 C-4.63707344 2.47411298 -3.33537489 1.11179163 0 0 Z " fill="#F6F6F5" transform="translate(807,287)"/>
<path d="M0 0 C2.1926135 4.2186994 4.36894477 8.60185899 3.625 13.4375 C3.41875 13.953125 3.2125 14.46875 3 15 C-0.16727335 9.8531808 -0.35050464 5.841744 0 0 Z " fill="#A0A1A4" transform="translate(250,268)"/>
<path d="M0 0 C0 0.99 0 1.98 0 3 C-2.70879335 4.35439668 -5.00933268 4.06501451 -8 4 C-4.5 0 -4.5 0 0 0 Z " fill="#B1B4B5" transform="translate(984,218)"/>
<path d="M0 0 C0 1.32 0 2.64 0 4 C-1.65 4.33 -3.3 4.66 -5 5 C-5.66 4.01 -6.32 3.02 -7 2 C-4.35261084 0.5393715 -3.10551666 0 0 0 Z " fill="#ABACAD" transform="translate(629,294)"/>
<path d="M0 0 C-0.33 1.32 -0.66 2.64 -1 4 C-3.31 4 -5.62 4 -8 4 C-4.5 0 -4.5 0 0 0 Z " fill="#D9DBDB" transform="translate(903,250)"/>
<path d="M0 0 C-0.33 0.99 -0.66 1.98 -1 3 C-3.31 3.33 -5.62 3.66 -8 4 C-5.52914451 0.29371676 -4.37054922 0 0 0 Z " fill="#F3F3F2" transform="translate(818,284)"/>
<path d="M0 0 C-0.33 0.99 -0.66 1.98 -1 3 C-3.31 3.33 -5.62 3.66 -8 4 C-4.5 0 -4.5 0 0 0 Z " fill="#F1F1F1" transform="translate(843,274)"/>
<path d="M0 0 C-0.33 0.99 -0.66 1.98 -1 3 C-3.31 3.33 -5.62 3.66 -8 4 C-4.5 0 -4.5 0 0 0 Z " fill="#F3F4F3" transform="translate(853,270)"/>
<path d="M0 0 C-0.33 0.99 -0.66 1.98 -1 3 C-3.31 3.33 -5.62 3.66 -8 4 C-4.5 0 -4.5 0 0 0 Z " fill="#EEEFEE" transform="translate(863,266)"/>
<path d="M0 0 C2.64 0 5.28 0 8 0 C4.71536341 2.18975773 1.79303725 2.99806563 -2 4 C-1.34 2.68 -0.68 1.36 0 0 Z " fill="#ACADB2" transform="translate(117,380)"/>
<path d="M0 0 C-0.33 0.99 -0.66 1.98 -1 3 C-3.31 3.33 -5.62 3.66 -8 4 C-6 1 -6 1 -4 0.3125 C-2 0 -2 0 0 0 Z " fill="#C3C5C5" transform="translate(960,228)"/>
<path d="M0 0 C2.625 0.9375 2.625 0.9375 5 2 C3.02 2.99 3.02 2.99 1 4 C1 3.34 1 2.68 1 2 C-0.98 2.33 -2.96 2.66 -5 3 C-2 1 -2 1 0 0 Z " fill="#9B9D9F" transform="translate(959,226)"/>
</svg>
